<svg xmlns="http://www.w3.org/2000/svg" viewBox="0 0 340 56" fill="none">
  <defs>
    <linearGradient id="a" x1="0" y1="0" x2="0" y2="1">
      <stop offset="0%" stop-color="#1a2e4a"/>
      <stop offset="100%" stop-color="#111827"/>
    </linearGradient>
  </defs>
  <!-- Hex-bracket icon -->
  <path d="M28 2L50 14V34C50 42 40 49 28 52C16 49 6 42 6 34V14L28 2Z"
    fill="url(#a)" stroke="#20c9bc" stroke-width="1.6" stroke-linejoin="round"/>
  <!-- Left bracket -->
  <path d="M20 19L14 28L20 37" stroke="#20c9bc" stroke-width="2"
    stroke-linecap="round" stroke-linejoin="round" opacity="0.45"/>
  <!-- Right bracket -->
  <path d="M36 19L42 28L36 37" stroke="#20c9bc" stroke-width="2"
    stroke-linecap="round" stroke-linejoin="round" opacity="0.45"/>
  <!-- d stem -->
  <rect x="23" y="18" width="3.5" height="20" rx="1.75" fill="#20c9bc"/>
  <!-- d bowl -->
  <path d="M26.5 18 Q36 18 36 28 Q36 38 26.5 38"
    fill="none" stroke="#20c9bc" stroke-width="3.5" stroke-linecap="round"/>
  <!-- Wordmark text (embedded as paths would be ideal but font-based works for SVG viewers with fonts) -->
  <text x="64" y="38" font-family="'IBM Plex Sans',sans-serif" font-weight="400"
    font-size="32" fill="#20c9bc" letter-spacing="-0.3">d</text>
  <text x="84" y="38" font-family="'IBM Plex Sans',sans-serif" font-weight="700"
    font-size="32" fill="#e8edf8" letter-spacing="-1">MCS</text>
  <text x="188" y="38" font-family="'IBM Plex Sans',sans-serif" font-weight="300"
    font-size="26" fill="#4a5e82" letter-spacing="0.5">lab</text>
  <!-- Accent rule -->
  <line x1="64" y1="43" x2="250" y2="43" stroke="#20c9bc" stroke-width="1" opacity="0.25"/>
</svg>
